<svg id="Camada_2" data-name="Camada 2" xmlns="http://www.w3.org/2000/svg" xmlns:xlink="http://www.w3.org/1999/xlink" viewBox="0 0 314.91 131.31"><defs><radialGradient id="Gradiente_sem_nome_10" cx="26.47" cy="54.82" r="52.78" gradientUnits="userSpaceOnUse"><stop offset="0.01" stop-color="#fad906"/><stop offset="1" stop-color="#f23145"/></radialGradient><radialGradient id="Gradiente_sem_nome_10-2" cx="58.33" cy="87.31" r="49.6" xlink:href="#Gradiente_sem_nome_10"/><radialGradient id="Gradiente_sem_nome_10-3" cx="85.4" cy="79.03" r="68.76" xlink:href="#Gradiente_sem_nome_10"/><linearGradient id="Gradiente_sem_nome_4" x1="63.46" y1="-12.82" x2="-10.43" y2="120.01" gradientUnits="userSpaceOnUse"><stop offset="0" stop-color="#fbd606"/><stop offset="1" stop-color="#f89b15"/></linearGradient><linearGradient id="Gradiente_sem_nome_4-2" x1="110.69" y1="13.46" x2="36.79" y2="146.28" xlink:href="#Gradiente_sem_nome_4"/><linearGradient id="Gradiente_sem_nome_4-3" x1="78.88" y1="-4.24" x2="4.98" y2="128.59" xlink:href="#Gradiente_sem_nome_4"/><linearGradient id="Gradiente_sem_nome_4-4" x1="39.57" y1="42.13" x2="29.69" y2="87.05" xlink:href="#Gradiente_sem_nome_4"/><linearGradient id="Gradiente_sem_nome_4-5" x1="97.18" y1="5.94" x2="23.28" y2="138.77" xlink:href="#Gradiente_sem_nome_4"/><linearGradient id="Gradiente_sem_nome_4-6" x1="121.61" y1="19.53" x2="47.71" y2="152.36" xlink:href="#Gradiente_sem_nome_4"/></defs><path d="M95,103.71h8.1v.87h-9V91.45h8.77v.87H95Zm-.11-6.22H102v.84H94.9Z" style="fill:#fff"/><path d="M110.35,104.58V91.45h.81l9.35,12h-.43v-12h1v13.13h-.78l-9.38-11.94h.44v11.94Z" style="fill:#fff"/><path d="M130.31,103.71h8.1v.87h-9V91.45h8.77v.87h-7.82Zm-.11-6.22h7.11v.84H130.2Z" style="fill:#fff"/><path d="M145.65,104.58V91.45h4.7a6.91,6.91,0,0,1,2.83.53A4,4,0,0,1,155,93.49a4.24,4.24,0,0,1,.64,2.39,4.2,4.2,0,0,1-.64,2.35,4.09,4.09,0,0,1-1.82,1.52,6.74,6.74,0,0,1-2.83.53h-4.18l.43-.45v4.75Zm.95-4.69-.43-.45h4.18a4.8,4.8,0,0,0,3.22-.94,3.69,3.69,0,0,0,0-5.26,4.91,4.91,0,0,0-3.22-.92h-4.18l.43-.47Zm8.16,4.69-3.41-4.76h1.08l3.42,4.76Z" style="fill:#fff"/><path d="M168.5,104.67a7.42,7.42,0,0,1-2.74-.5,6.61,6.61,0,0,1-2.18-1.39,6.21,6.21,0,0,1-1.43-2.11,7.17,7.17,0,0,1,0-5.31,6.1,6.1,0,0,1,1.44-2.11,6.61,6.61,0,0,1,2.18-1.39,7.39,7.39,0,0,1,2.75-.5,7.54,7.54,0,0,1,2.64.45,5.43,5.43,0,0,1,2.08,1.35l-.6.64a5,5,0,0,0-1.88-1.2,6.63,6.63,0,0,0-2.22-.36,6.47,6.47,0,0,0-2.36.43,5.79,5.79,0,0,0-1.9,1.22A5.48,5.48,0,0,0,163,95.73a6.15,6.15,0,0,0,0,4.57,5.48,5.48,0,0,0,1.24,1.84,5.79,5.79,0,0,0,1.9,1.22,6.27,6.27,0,0,0,2.36.43,6.68,6.68,0,0,0,2.2-.36,5,5,0,0,0,1.9-1.18l.55.73a5.58,5.58,0,0,1-2.11,1.27A7.93,7.93,0,0,1,168.5,104.67Zm3.77-1.78V98.07h.92V103Z" style="fill:#fff"/><path d="M181.14,104.58V91.45h1v13.13Z" style="fill:#fff"/><path d="M188.22,104.58l6-13.13h1l6,13.13h-1l-5.7-12.53h.41l-5.68,12.53Zm2.21-3.7.32-.8h7.86l.32.8Z" style="fill:#fff"/><path d="M219.4,104.67a7.73,7.73,0,0,1-2.77-.5,5.09,5.09,0,0,1-2-1.28l.43-.71a5.4,5.4,0,0,0,1.84,1.17,6.53,6.53,0,0,0,2.49.48,5.63,5.63,0,0,0,2.14-.35,2.7,2.7,0,0,0,1.24-.93,2.22,2.22,0,0,0,.41-1.29,2,2,0,0,0-.46-1.35,3,3,0,0,0-1.18-.81,9.58,9.58,0,0,0-1.59-.5l-1.74-.44a8,8,0,0,1-1.61-.61,3.1,3.1,0,0,1-1.18-1,2.94,2.94,0,0,1-.44-1.67,3.28,3.28,0,0,1,.49-1.73A3.46,3.46,0,0,1,217,91.85a6.13,6.13,0,0,1,2.64-.49,7.52,7.52,0,0,1,2.15.32,6.08,6.08,0,0,1,1.81.86l-.36.77a6.22,6.22,0,0,0-1.77-.83,6.31,6.31,0,0,0-1.83-.28,5.21,5.21,0,0,0-2.08.36,2.72,2.72,0,0,0-1.22,1,2.33,2.33,0,0,0-.39,1.32,2,2,0,0,0,.44,1.35,3,3,0,0,0,1.17.8,11.27,11.27,0,0,0,1.61.51l1.75.44a8.6,8.6,0,0,1,1.59.61,3.23,3.23,0,0,1,1.18,1,2.82,2.82,0,0,1,.45,1.65,3.12,3.12,0,0,1-.51,1.72,3.46,3.46,0,0,1-1.54,1.27A6.41,6.41,0,0,1,219.4,104.67Z" style="fill:#fff"/><path d="M236.68,104.67a7.3,7.3,0,0,1-2.71-.5,6.46,6.46,0,0,1-3.61-3.52,7.19,7.19,0,0,1,0-5.27,6.43,6.43,0,0,1,1.44-2.12,6.59,6.59,0,0,1,2.17-1.4,7.59,7.59,0,0,1,5.42,0,6.44,6.44,0,0,1,3.6,3.5,7.17,7.17,0,0,1,0,5.31,6.44,6.44,0,0,1-3.6,3.5A7.26,7.26,0,0,1,236.68,104.67Zm0-.88a6.15,6.15,0,0,0,2.33-.43,5.59,5.59,0,0,0,3.08-3.06,6.18,6.18,0,0,0,0-4.58,5.67,5.67,0,0,0-1.23-1.83A5.57,5.57,0,0,0,239,92.67a6.35,6.35,0,0,0-2.33-.43,6.26,6.26,0,0,0-2.32.43,5.66,5.66,0,0,0-1.87,1.22,6,6,0,0,0-1.24,6.41,5.8,5.8,0,0,0,1.24,1.84,5.66,5.66,0,0,0,1.87,1.22A6.06,6.06,0,0,0,236.68,103.79Z" style="fill:#fff"/><path d="M250.57,104.58V91.45h1v12.26h7.55v.87Z" style="fill:#fff"/><path d="M263.09,104.58l6-13.13h1l6,13.13h-1l-5.7-12.53h.42l-5.68,12.53Zm2.22-3.7.32-.8h7.85l.32.8Z" style="fill:#fff"/><path d="M282.25,104.58V91.45H287a6.94,6.94,0,0,1,2.83.53,4.06,4.06,0,0,1,1.82,1.51,4.32,4.32,0,0,1,.64,2.39,4.28,4.28,0,0,1-.64,2.35,4.15,4.15,0,0,1-1.82,1.52,6.78,6.78,0,0,1-2.83.53h-4.18l.43-.45v4.75Zm1-4.69-.43-.45H287a4.79,4.79,0,0,0,3.21-.94,3.69,3.69,0,0,0,0-5.26,4.9,4.9,0,0,0-3.21-.92h-4.18l.43-.47Zm8.15,4.69L288,99.82H289l3.41,4.76Z" style="fill:#fff"/><path d="M62.17,81.89a2.05,2.05,0,0,1-2.25-2.25V46.78a2.24,2.24,0,0,1,.59-1.66,2.27,2.27,0,0,1,1.66-.59h3.31a2,2,0,0,1,2.19,2.25V75.46H81.82a2.43,2.43,0,0,1,1.7.55,2.06,2.06,0,0,1,.6,1.61v2a2.19,2.19,0,0,1-.62,1.66,2.34,2.34,0,0,1-1.68.59Z" style="fill:#fff"/><path d="M112.22,52.87a2.16,2.16,0,0,1,1.6.57,2.24,2.24,0,0,1,.56,1.62V79.64a2.28,2.28,0,0,1-.58,1.65,2.08,2.08,0,0,1-1.58.6h-2.08a2.12,2.12,0,0,1-1.61-.6,2.28,2.28,0,0,1-.58-1.65V78.1a9.83,9.83,0,0,1-8.79,4.55,11.32,11.32,0,0,1-8.46-3.27,11.72,11.72,0,0,1-3.21-8.58V55.06A2.28,2.28,0,0,1,88,53.44a2.12,2.12,0,0,1,1.59-.57h3.31a2,2,0,0,1,2.19,2.19V69.93a6.24,6.24,0,0,0,1.55,4.42A5.35,5.35,0,0,0,100.82,76a5.63,5.63,0,0,0,4.32-1.71,6.38,6.38,0,0,0,1.6-4.55V55.06a2.24,2.24,0,0,1,.55-1.62,2.1,2.1,0,0,1,1.59-.57Z" style="fill:#fff"/><path d="M156.9,52.39a11.23,11.23,0,0,1,8.56,3.4,12.4,12.4,0,0,1,3.23,8.92V79.64a2.28,2.28,0,0,1-.58,1.65,2.12,2.12,0,0,1-1.61.6h-3.31a2,2,0,0,1-1.57-.6,2.31,2.31,0,0,1-.57-1.65V65.27a6.63,6.63,0,0,0-1.53-4.61A5.36,5.36,0,0,0,155.3,59a6,6,0,0,0-4.45,1.72,6.27,6.27,0,0,0-1.7,4.59V79.64a2.31,2.31,0,0,1-.56,1.65,2,2,0,0,1-1.57.6h-3.34a2.12,2.12,0,0,1-1.61-.6,2.28,2.28,0,0,1-.58-1.65V65.27A6.67,6.67,0,0,0,140,60.66a5.36,5.36,0,0,0-4.22-1.7,5.94,5.94,0,0,0-4.44,1.72,6.23,6.23,0,0,0-1.7,4.59V79.64a2.36,2.36,0,0,1-.56,1.65,2.07,2.07,0,0,1-1.58.6h-3.34a2.12,2.12,0,0,1-1.61-.6,2.31,2.31,0,0,1-.57-1.65V55.06a2.21,2.21,0,0,1,.57-1.62,2.18,2.18,0,0,1,1.61-.57h2.19a2,2,0,0,1,2.19,2.19V57a10.72,10.72,0,0,1,9.12-4.6,12.17,12.17,0,0,1,5.54,1.22,10.19,10.19,0,0,1,3.9,3.44,11.41,11.41,0,0,1,4.14-3.41A12.61,12.61,0,0,1,156.9,52.39Z" style="fill:#fff"/><path d="M179.89,48A4.88,4.88,0,0,1,175,43.1a4.85,4.85,0,0,1,1.44-3.5,5,5,0,0,1,8.47,3.5,4.69,4.69,0,0,1-1.48,3.49A4.78,4.78,0,0,1,179.89,48Zm-1.66,33.85a2.12,2.12,0,0,1-1.61-.6,2.32,2.32,0,0,1-.58-1.65V55.06a2.21,2.21,0,0,1,.58-1.62,2.18,2.18,0,0,1,1.61-.57h3.34a2.12,2.12,0,0,1,1.59.57,2.28,2.28,0,0,1,.55,1.62V79.64a2.31,2.31,0,0,1-.57,1.65,2,2,0,0,1-1.57.6Z" style="fill:#fff"/><path d="M207.06,52.39a11.34,11.34,0,0,1,8.59,3.4,12.33,12.33,0,0,1,3.25,8.92V79.64a2.31,2.31,0,0,1-.56,1.65,2,2,0,0,1-1.57.6h-3.31a2.16,2.16,0,0,1-1.62-.6,2.31,2.31,0,0,1-.57-1.65V65.27a6.39,6.39,0,0,0-1.63-4.59A5.75,5.75,0,0,0,205.23,59a6.1,6.1,0,0,0-4.53,1.74A6.21,6.21,0,0,0,199,65.27V79.64a2.31,2.31,0,0,1-.56,1.65,2,2,0,0,1-1.57.6H193.5a2.12,2.12,0,0,1-1.61-.6,2.28,2.28,0,0,1-.58-1.65V55.06a2,2,0,0,1,2.19-2.19h2.19a2,2,0,0,1,2.19,2.19V57A10.49,10.49,0,0,1,207.06,52.39Z" style="fill:#fff"/><path d="M230.1,48a4.94,4.94,0,0,1-3.49-8.44,4.71,4.71,0,0,1,3.49-1.47,5,5,0,0,1,5,5,4.71,4.71,0,0,1-1.47,3.49A4.8,4.8,0,0,1,230.1,48Zm-1.65,33.85a2.14,2.14,0,0,1-1.62-.6,2.31,2.31,0,0,1-.57-1.65V55.06a2,2,0,0,1,2.19-2.19h3.34a2.08,2.08,0,0,1,1.58.57,2.24,2.24,0,0,1,.55,1.62V79.64a2.36,2.36,0,0,1-.56,1.65,2.06,2.06,0,0,1-1.57.6Z" style="fill:#fff"/><path d="M250.51,82.59a15.1,15.1,0,0,1-5.78-1.19A12.11,12.11,0,0,1,240,78c-.73-1-.69-1.78.12-2.42l.39-.42a4,4,0,0,1,.8-.52,1.15,1.15,0,0,1,.78,0,2.12,2.12,0,0,1,.89.61,9.45,9.45,0,0,0,7.3,3.39,7.43,7.43,0,0,0,4.29-1.12,3.47,3.47,0,0,0,1.63-3,4.26,4.26,0,0,0-.46-2,4.45,4.45,0,0,0-1.46-1.55,15.22,15.22,0,0,0-1.94-1.12c-.63-.3-1.45-.66-2.46-1.07-.22-.09-.39-.16-.5-.19-1-.41-1.85-.76-2.46-1a22.87,22.87,0,0,1-2.15-1.18,8.51,8.51,0,0,1-1.9-1.52,6.92,6.92,0,0,1-1.17-1.89,6.18,6.18,0,0,1-.49-2.49,7.16,7.16,0,0,1,2.65-5.81,10.79,10.79,0,0,1,7.06-2.18,11.46,11.46,0,0,1,8.73,3.67,1.6,1.6,0,0,1,.11,2.5l-.39.39a1.57,1.57,0,0,1-2.47.12A10.92,10.92,0,0,0,254,57a7.64,7.64,0,0,0-3.16-.61,6,6,0,0,0-3.64,1,3.2,3.2,0,0,0-1.36,2.67,3.08,3.08,0,0,0,1.29,2.56,21.11,21.11,0,0,0,4.16,2.21,52.84,52.84,0,0,1,5.33,2.53,8,8,0,0,1,4,5.16,9,9,0,0,1,.19,1.91A7.2,7.2,0,0,1,258,80.36,11.64,11.64,0,0,1,250.51,82.59Z" style="fill:#fba700"/><path d="M288.57,80.61a16.47,16.47,0,0,1-15.66,0,14.32,14.32,0,0,1-5.49-5.43,15.81,15.81,0,0,1,0-15.32,14.28,14.28,0,0,1,5.49-5.44,16.55,16.55,0,0,1,15.66,0,14.28,14.28,0,0,1,5.49,5.44,15.81,15.81,0,0,1,0,15.32A14.32,14.32,0,0,1,288.57,80.61Zm-15.52-5.23a11.06,11.06,0,0,0,15.38,0,10.88,10.88,0,0,0,3-7.86,10.88,10.88,0,0,0-3-7.86,11,11,0,0,0-15.35,0,10.79,10.79,0,0,0-3,7.86A10.85,10.85,0,0,0,273.05,75.38Z" style="fill:#fba700"/><path d="M304.51,81.89a1.47,1.47,0,0,1-1.14-.45,1.73,1.73,0,0,1-.4-1.21V42.85c0-.83.51-1.38,1.54-1.66l1.21-.28c1.2-.32,1.79.2,1.79,1.54V80.23a1.7,1.7,0,0,1-.42,1.21,1.49,1.49,0,0,1-1.15.45Z" style="fill:#fba700"/><path d="M71.14,37.38c-4.2,3.2-9.32,3.4-13.87,5.37-.77.33-1.08-.28-1.38-.86C52.44,35.25,49.77,28.41,50,20.71c.29-8.94,5.25-14.71,14-16.66a34.12,34.12,0,0,1,7.5-1c1.15,0,2.3-.09,3.44,0a7.17,7.17,0,0,1,7,6.14C83.93,18.15,78.43,31.81,71.14,37.38Zm12.73,7a18.22,18.22,0,0,0-4.79-2.78c-2.25-.86-2.25-2.08-1.53-4.06C79.87,31.09,82.73,25,87.77,20.13c6.63-6.41,13.44-7.32,21.42-2.69A39,39,0,0,1,117.82,24c4.24,4.39,4.42,8.29.19,12.75C111.27,43.85,102.7,46.78,93.08,47,89.73,47.1,86.62,46.57,83.87,44.39Z" style="fill:#fad305"/><path d="M16.09,53c-7,.29-10.49,3.87-10.37,10.88A25.75,25.75,0,0,0,8.56,75.34,16.8,16.8,0,0,0,21.65,85a33.62,33.62,0,0,0,12.49-.56A53.4,53.4,0,0,1,21.05,53.07,40.79,40.79,0,0,0,16.09,53Z" style="fill:url(#Gradiente_sem_nome_10)"/><path d="M36.19,86.6c-5.71,1.76-10.83,4.54-14.77,9.11-3.79,4.4-3.32,8.52,1,12.44,1,.86,1.82,1.93,2.74,2.8,4.94,4.67,10.31,8.55,17.7,6.46,5.16-1.46,9-4.92,12.42-8.84a26.17,26.17,0,0,0,5.18-7.69A53.52,53.52,0,0,1,36.19,86.6Z" style="fill:url(#Gradiente_sem_nome_10-2)"/><path d="M63,101.52c-3.85,5.83-5.87,12.23-5.15,19.33.5,4.84,3.71,7.61,8.52,7.73a28.65,28.65,0,0,0,14.49-3.19c2.68-1.45,5.18-3.25,6.52-6.17a29.86,29.86,0,0,0,2-18.54,54.09,54.09,0,0,1-26.37.84Z" style="fill:url(#Gradiente_sem_nome_10-3)"/><path d="M118,36.73c4.23-4.46,4-8.36-.19-12.75a39,39,0,0,0-8.63-6.54c-8-4.63-14.79-3.72-21.42,2.69-5,4.87-7.9,11-10.22,17.42-.72,2-.72,3.2,1.53,4.06a18.22,18.22,0,0,1,4.79,2.78c2.75,2.18,5.86,2.71,9.21,2.61C102.7,46.78,111.27,43.85,118,36.73Z" style="fill:#fad305"/><path d="M82,9.17A7.17,7.17,0,0,0,75,3c-1.14-.1-2.29,0-3.44,0a34.12,34.12,0,0,0-7.5,1c-8.8,2-13.76,7.72-14,16.66-.25,7.7,2.42,14.54,5.87,21.18.3.58.61,1.19,1.38.86,4.55-2,9.67-2.17,13.87-5.37C78.43,31.81,83.93,18.15,82,9.17Z" style="fill:#fad305"/><path d="M47.31,77.78A31.66,31.66,0,0,1,44.53,69a3.62,3.62,0,0,0-.92-3.17A29,29,0,0,0,21.05,53.07,53.4,53.4,0,0,0,34.14,84.39a61.08,61.08,0,0,0,12.52-4.54C47.73,79.35,47.83,78.75,47.31,77.78Z" style="fill:#fad305"/><path d="M64,92.5c.53-1.57,0-2.12-1.52-2.59a34.43,34.43,0,0,1-9.07-4.29,4.9,4.9,0,0,0-2.72-.86,40.88,40.88,0,0,0-14.37,1.81l-.1,0a53.52,53.52,0,0,0,24.28,14.28c.14-.38.27-.77.39-1.18C62.59,97.6,63.13,95,64,92.5Z" style="fill:#fad305"/><path d="M84.69,88.84c-.46-.73-.84-1.56-2-.81a26.82,26.82,0,0,1-7.13,2.64c-5.4,1.54-9.09,5.08-11.79,9.83-.24.34-.47.67-.7,1a54.09,54.09,0,0,0,26.37-.84c-.11-.58-.23-1.17-.38-1.75A30.48,30.48,0,0,0,84.69,88.84Z" style="fill:#fad305"/><path d="M51.19,44.31a40.79,40.79,0,0,0-3.42-15A35.81,35.81,0,0,0,40.2,18,9.08,9.08,0,0,0,33,15.17a9.94,9.94,0,0,0-6.17,2.93,33.55,33.55,0,0,0-8.22,12.5A13.23,13.23,0,0,0,20,42.75c.35.58.73,1.14,1.11,1.68,5.59,7.84,13.84,11.44,23,13.59,1.19.28,1.35-.43,1.61-1.18a30,30,0,0,1,3.5-7.11C50.64,47.75,51.39,45.7,51.19,44.31Z" style="fill:url(#Gradiente_sem_nome_4)"/><path d="M118,36.73c4.23-4.46,4-8.36-.19-12.75a39,39,0,0,0-8.63-6.54c-8-4.63-14.79-3.72-21.42,2.69-5,4.87-7.9,11-10.22,17.42-.72,2-.72,3.2,1.53,4.06a18.22,18.22,0,0,1,4.79,2.78c2.75,2.18,5.86,2.71,9.21,2.61C102.7,46.78,111.27,43.85,118,36.73Z" style="fill:url(#Gradiente_sem_nome_4-2)"/><path d="M82,9.17A7.17,7.17,0,0,0,75,3c-1.14-.1-2.29,0-3.44,0a34.12,34.12,0,0,0-7.5,1c-8.8,2-13.76,7.72-14,16.66-.25,7.7,2.42,14.54,5.87,21.18.3.58.61,1.19,1.38.86,4.55-2,9.67-2.17,13.87-5.37C78.43,31.81,83.93,18.15,82,9.17Z" style="fill:url(#Gradiente_sem_nome_4-3)"/><path d="M47.31,77.78A31.66,31.66,0,0,1,44.53,69a3.62,3.62,0,0,0-.92-3.17A29,29,0,0,0,21.05,53.07,53.4,53.4,0,0,0,34.14,84.39a61.08,61.08,0,0,0,12.52-4.54C47.73,79.35,47.83,78.75,47.31,77.78Z" style="fill:url(#Gradiente_sem_nome_4-4)"/><path d="M64,92.5c.53-1.57,0-2.12-1.52-2.59a34.43,34.43,0,0,1-9.07-4.29,4.9,4.9,0,0,0-2.72-.86,40.88,40.88,0,0,0-14.37,1.81l-.1,0a53.52,53.52,0,0,0,24.28,14.28c.14-.38.27-.77.39-1.18C62.59,97.6,63.13,95,64,92.5Z" style="fill:url(#Gradiente_sem_nome_4-5)"/><path d="M84.69,88.84c-.46-.73-.84-1.56-2-.81a26.82,26.82,0,0,1-7.13,2.64c-5.4,1.54-9.09,5.08-11.79,9.83-.24.34-.47.67-.7,1a54.09,54.09,0,0,0,26.37-.84c-.11-.58-.23-1.17-.38-1.75A30.48,30.48,0,0,0,84.69,88.84Z" style="fill:url(#Gradiente_sem_nome_4-6)"/></svg>